# xmcd CD database file
# Copyright (C) 1993-1998 Ti Kan
#
# Track frame offsets:
#  182
#  19615
#  35415
#  55132
#  69175
#  86202
#  107505
#  124495
#  139392
#  155780
#
# Disc length: 2264 seconds
#
# Revision: 1
# Processed by: cddbd v1.4b41PL1 Copyright (c) Steve Scherf et al.
# Submitted via: KiC 2.1 - (C) 1996-1998 Alwin Hoogerdijk
#
DISCID=8908d60a
DTITLE=Danielle Alexander - First Move
DYEAR=1900
DGENRE=
TTITLE0=First Move
TTITLE1=Fairytale Fool
TTITLE2=Silly Me
TTITLE3=Where Did The Moon Go Wrong?
TTITLE4=Memories
TTITLE5=You Called
TTITLE6=She's There
TTITLE7=I Don't Wanna Know
TTITLE8=True Heart
TTITLE9=Goodbye Me
EXTD=
EXTT0=
EXTT1=
EXTT2=
EXTT3=
EXTT4=
EXTT5=
EXTT6=
EXTT7=
EXTT8=
EXTT9=
PLAYORDER=
